<?xml version="1.0" encoding="UTF-8"?>
<svg width="100px" height="100px" viewBox="0 0 100 100" version="1.1" xmlns="http://www.w3.org/2000/svg" xmlns:xlink="http://www.w3.org/1999/xlink">
    <!-- Generator: Sketch 52.4 (67378) - http://www.bohemiancoding.com/sketch -->
    <title>software</title>
    <desc>Created with Sketch.</desc>
    <g id="software" stroke="none" stroke-width="1" fill="none" fill-rule="evenodd">
        <g id="1f45d461123dd7d58c2547317d406506" fill-rule="nonzero">
            <g id="Group" transform="translate(10.750000, 10.666667)" fill="#FFFFFF">
                <path d="M0.05,39.8333333 L38.75,78.5333333 C28.8666667,78.4166667 19.0166667,74.6583333 11.4666667,67.1083333 C3.925,59.5666667 0.166666667,49.7166667 0.05,39.8333333 Z M53.5333333,39.3333333 L78.5333333,39.3333333 C78.5333333,58.0416667 65.45,73.6583333 47.9416667,77.6166667 L0.966666667,30.6416667 C4.925,13.1333333 20.55,0.05 39.25,0.05 C52.325,0.05 63.875,6.46666667 71.0166667,16.2916667 L65.55,20.9166667 C59.7333333,12.625 50.125,7.19166667 39.25,7.19166667 C25.275,7.19166667 13.3916667,16.1666667 8.975,28.65 L49.9416667,69.6166667 C60.225,65.975 68.1083333,57.2666667 70.575,46.4833333 L53.5333333,46.4833333 L53.5333333,39.3333333 Z" id="Shape"></path>
            </g>
            <path d="M50,0 C77.6166667,0 100,22.3833333 100,50 C100,77.6166667 77.6166667,100 50,100 C22.3833333,100 0,77.6166667 0,50 C0,22.3833333 22.3833333,0 50,0 Z M89.2833333,50 L64.2833333,50 L64.2833333,57.15 L81.325,57.15 C78.8583333,67.9333333 70.975,76.6416667 60.6916667,80.2833333 L19.725,39.3166667 C24.1416667,26.8333333 36.025,17.8583333 50,17.8583333 C60.875,17.8583333 70.4833333,23.2916667 76.3,31.5833333 L81.7666667,26.9583333 C74.625,17.1333333 63.075,10.7166667 50,10.7166667 C31.3,10.7166667 15.675,23.8 11.7166667,41.3083333 L58.6916667,88.2833333 C76.2,84.325 89.2833333,68.7083333 89.2833333,50 Z M49.5,89.2 L10.8,50.5 C10.9166667,60.3833333 14.675,70.2333333 22.2166667,77.775 C29.7666667,85.325 39.6166667,89.0833333 49.5,89.2 Z" id="Shape" fill="#663399"></path>
        </g>
    </g>
</svg>