<?xml version="1.0" encoding="UTF-8"?>
<svg width="100px" height="100px" viewBox="0 0 100 100" version="1.1" xmlns="http://www.w3.org/2000/svg" xmlns:xlink="http://www.w3.org/1999/xlink">
    <!-- Generator: Sketch 52.4 (67378) - http://www.bohemiancoding.com/sketch -->
    <title>software</title>
    <desc>Created with Sketch.</desc>
    <g id="software" stroke="none" stroke-width="1" fill="none" fill-rule="evenodd">
        <g id="Wordpress-Logo" fill="#439BC3">
            <path d="M50.0013552,7.00700817 C61.2167499,7.00700817 71.4285438,11.304836 79.0833237,18.3414644 C75.3314361,18.2407945 71.5872924,20.4710187 71.4324157,25.5780772 C71.1168545,35.9025438 83.778023,38.1017927 76.9557053,58.8688195 L71.3123863,76.0465792 L55.9428118,30.7722538 C55.7046889,30.0714369 55.981531,29.6726294 56.8430325,29.6726294 L61.1882913,29.6726294 C61.4141209,29.6726294 61.5987339,29.479808 61.5987339,29.2436597 L61.5987339,26.6699965 C61.5987339,26.4339451 61.4136563,26.2313664 61.1882913,26.2411236 C52.9594997,26.6009602 44.7791071,26.6033995 36.6480815,26.2411236 C36.4215743,26.2314438 36.2376583,26.4347195 36.2376583,26.6709064 L36.2376583,29.2445696 C36.2376583,29.4804662 36.4223487,29.6735393 36.6481008,29.6735393 L41.017172,29.6735393 C41.9890425,29.6735393 42.2611414,29.9973865 42.4902621,30.6238433 L48.8053587,47.894529 L39.3056104,76.579626 L23.6901692,30.5851241 C23.4965734,30.0082085 23.7308243,29.6732876 24.2864444,29.6732876 L29.2647617,29.6732876 C29.4905138,29.6732876 29.6751268,29.4804662 29.6751268,29.244318 L29.6751268,26.6706547 C29.6751268,26.4346033 29.4898556,26.2299531 29.2647617,26.2417819 C24.0415457,26.5192241 18.7983893,26.5750184 13.9143532,26.6251597 C21.5786193,14.8189104 34.8769118,7.00615635 49.9986835,7.00615635 L49.9986274,7.00603632 L50.0013552,7.00700817 Z M87.8144965,29.5280133 C91.1182096,35.6148604 92.9941534,42.5887637 92.9941534,49.9988384 C92.9941534,66.2618577 83.9580671,80.4166183 70.6357688,87.7229256 L84.0442173,49.7452279 C86.1215008,43.8676579 88.0497154,35.9244202 87.8135285,29.5280133 L87.813451,29.5280133 L87.8144965,29.5280133 Z M64.3952066,90.5184497 C59.8941031,92.1194874 55.0503349,92.9926046 50.0013552,92.9926046 C45.6512564,92.9926046 41.4540984,92.3440585 37.4969993,91.1437643 L50.7418593,53.1873621 L64.395013,90.5203856 L64.395013,90.5203837 L64.3952066,90.5184497 Z M31.6039416,88.8651411 C17.0646997,81.9698378 7.00758896,67.1572385 7.00758896,50.0007744 C7.00758896,43.6407635 8.39112169,37.6032834 10.8707941,32.171371 L31.6049677,88.8659155 L31.6039416,88.8651411 Z M50,2.97247067 C75.9670113,2.97247067 97.0263678,24.0318272 97.0263678,49.9988384 C97.0263678,75.9658497 75.9670113,97.0252062 50,97.0252062 C24.0329887,97.0252062 2.97363225,75.9658497 2.97363225,49.9988384 C2.97363225,24.0318272 24.0329887,2.97247067 50,2.97247067 Z M50,0 C77.6087041,0 100,22.3912959 100,50 C100,77.6087041 77.6087041,100 50,100 C22.3912959,100 0,77.6087041 0,50 C0,22.3912959 22.3912959,8.59738277e-15 50,0 Z" id="Shape"></path>
        </g>
    </g>
</svg>